# xmcd CD database file
#
# Track frame offsets:
#	150
#	170154
#	197588
#
# Disc length: 3855 seconds
#
# Revision: 0
# Processed by: cddbd v1.5.2PL0 Copyright (c) Steve Scherf et al.
# Submitted via: CDex 1.51
#
DISCID=230f0d03
DTITLE=Sunny Murray Trio - The gearbox explodes!
DYEAR=2006
DGENRE=Jazz
TTITLE0=Right on guys
TTITLE1=Hold it right there
TTITLE2=The gearbox explodes!
EXTD=YEAR: 2006
EXTT0=
EXTT1=
EXTT2=
PLAYORDER=
